<?xml version="1.0" encoding="utf-8"?>
<!-- Generator: Adobe Illustrator 18.1.1, SVG Export Plug-In . SVG Version: 6.00 Build 0)  -->
<!DOCTYPE svg PUBLIC "-//W3C//DTD SVG 1.1//EN" "http://www.w3.org/Graphics/SVG/1.1/DTD/svg11.dtd">
<svg version="1.1" id="Layer_1" xmlns="http://www.w3.org/2000/svg" xmlns:xlink="http://www.w3.org/1999/xlink" x="0px" y="0px"
	 viewBox="0 0 66 97" enable-background="new 0 0 66 97" xml:space="preserve">
<g>
	<g>
		<path d="M40.2-106.4c1.4,0.2,2.7,0.5,4.1,0.7c0.4,0.1,0.8-0.2,1.2-0.1c4,0.7,8,1.4,12,2.1c0.9,0.1,1.7,0.1,2.6,0.3
			c1.6,0.3,3.2,0.7,4.8,1.1c0.8,0.2,1.7,0.5,2.5,0.6c0.6,0.1,1.2-0.1,1.8,0.1c3.8,1.3,7.6,2.7,11.4,4c0.6,0.2,1.3,0.5,1.9,0.6
			c0.7,0.1,1.5,0,2.1,0.2c3.6,1.7,7.1,3.5,10.6,5.2c0.7,0.3,1.4,0.5,2.1,0.8c1.4,0.6,2.8,1.3,4.2,2c1.2,0.6,2.3,1.3,3.5,1.9
			c1,0.6,2.1,1.1,3.1,1.7c1.4,0.8,2.7,1.7,4.1,2.6c0.2,0.1,0.4,0.1,0.5,0.3c3.1,2.5,6.3,5.1,9.4,7.6c0.5,0.4,1.1,0.7,1.7,1.1
			c0.8,0.5,1.7,0.7,2.3,1.3c2.7,2.7,5.2,5.6,7.9,8.4c1.2,1.2,3,2,4.1,3.3c3.2,3.7,6.4,7.4,9.3,11.4c2.3,3.2,4,6.8,6.1,10.1
			c0.7,1.1,2,2,2.6,3.1c1.8,3.6,3.3,7.4,5,11c0.7,1.4,2,2.5,2.5,3.9c1.3,3.6,2.2,7.4,3.4,11c1.2,3.5,2.8,6.8,3.7,10.3
			c1,3.9,1.5,8,2.2,12c0.1,0.7,0.2,1.5,0.4,2.2c0.2,0.8,0.7,1.5,0.8,2.2c0.2,3.9,0.1,7.9,0.3,11.8c0.1,1.3,0.9,2.7,0.8,4
			c-0.2,3.9-0.7,7.8-0.9,11.7c-0.1,1.4,0.5,3,0.3,4.4c-0.7,3.9-1.7,7.7-2.4,11.6c-0.3,1.5,0.2,3.2-0.2,4.6
			c-1.1,3.7-2.5,7.3-3.6,10.9c-1.1,3.6-1.8,7.3-3.1,10.8c-1.4,3.7-3.4,7.1-5.1,10.7c-0.3,0.7-0.7,1.4-1,2.1
			c-0.3,0.7-0.3,1.6-0.7,2.3c-2.2,3.3-4.5,6.5-6.6,9.8c-0.8,1.3-1.1,3-2,4.2c-2.4,3-5.1,5.8-7.6,8.7c-2.3,2.7-4.5,5.5-6.7,8.3
			c-0.2,0.3-0.4,0.7-0.7,1c-3,2.5-6.1,5-9.1,7.6c-0.9,0.8-1.5,2.1-2.5,2.8c-3.3,2.3-6.7,4.5-10,6.8c-0.6,0.4-1.1,1-1.7,1.5
			c-1.1,0.8-2.2,1.7-3.3,2.4c-1.3,0.8-2.6,1.5-3.9,2.3c-0.4,0.3-0.7,0.7-1.2,0.9c-3.6,1.6-7.2,3.1-10.8,4.7c-1,0.4-1.7,1.4-2.6,1.8
			c-4.1,1.6-8.3,3-12.4,4.5c-0.2,0.1-0.3,0.2-0.1,0c0.4,4.2,0.9,8.2,1.3,12.8c7,0,14,0,20.9,0c2.6,0,4.3,1,4.1,4.1
			c-0.1,2.1,0.8,4.6-0.1,6.1c-0.6,1-3.5,0.9-5.4,1c-1.8,0.1-3.7-0.1-5.5-0.1c-0.7,0-1.5-0.1-2.2,0c-1.5,0-2.9,0.1-4.4,0.1
			c-1.4,0-2.8-0.1-4.3-0.1c-0.9,0-1.9,0.3-2.6,0c-4.1-2-6.2,0.8-8.6,3.3c-1.6,1.6-3.8,2.6-5.7,3.8c-0.8,0.5-1.8,0.7-2.6,1.2
			c-3,1.9-12.2,2.8-15.5,1.4c-0.7-0.3-1.5-0.1-2.3-0.3c-1.9-0.5-4-0.7-5.5-1.8c-4-2.9-7.6-3-11.7-0.2c-1.8,1.2-4.3,1.5-6.5,2.2
			c-0.7,0.2-1.5,0.2-2.3,0.4c-0.6,0.1-1.1,0.4-1.7,0.6c-2.4,0.7-11.9-1.5-14-3c-0.8-0.6-1.8-0.7-2.6-1.2c-1.8-1.3-3.8-2.4-5.2-4.1
			c-1.6-1.9-4.9-3.3-7.4-2.7c-1.6,0.3-3.3,0.1-4.9,0.1c-1.8,0-3.5,0-5.3,0.2c-8.1,0.9-8.9,0.2-9.1-7.7c0-1,0-1.9,0-2.8
			c6.5-0.3,12.7-0.6,19.4-1c0.4-4.1,0.8-8,1.2-11.3c-4.5-2.5-8.9-4.9-13.2-7.4c-0.7-0.4-1.5-0.4-2.1-0.8c-1.6-0.8-3.1-1.6-4.6-2.5
			c-0.7-0.4-1.3-0.8-2-1.1c-0.7-0.3-1.6-0.3-2.2-0.7c-3.3-2.2-6.4-4.6-9.7-6.8c-1.3-0.9-3-1.2-4.1-2.2c-3-2.5-5.7-5.2-8.6-7.7
			c-2.7-2.3-5.4-4.5-8.2-6.8c-0.2-0.1-0.4-0.2-0.5-0.3c-2.6-3.1-5.2-6.2-7.7-9.3c-0.4-0.5-0.9-1-1.3-1.5c-0.6-0.5-1.4-0.9-1.8-1.5
			c-2.1-3.3-4.1-6.7-6.3-10c-0.8-1.2-2.2-2-2.9-3.3c-1.8-3.5-3.4-7.1-5.1-10.7c-1.6-3.2-3.2-6.3-4.8-9.5c-0.1-0.3-0.4-0.5-0.5-0.8
			c-1.2-3.9-2.2-7.8-3.5-11.6c-0.4-1.3-1.4-2.4-1.7-3.7c-0.8-3.9-1.4-7.8-2.1-11.7c-0.6-3.6-1.4-7.2-2-10.8
			c-0.2-1.3-0.1-2.7-0.3-4.1c-0.2-1.4-0.5-2.7-0.7-4.1c0-3.8,0-7.5,0-11.3c0.3-1,0.8-1.9,0.9-2.9c0.3-4,0.4-8.1,0.7-12.1
			c0-0.6,0.6-1.3,0.8-1.9c0.2-0.5,0.3-1.1,0.4-1.7c0.6-4,1.3-8,1.9-12c0-0.2,0.1-0.4,0.2-0.6c1.3-3.4,2.7-6.8,3.9-10.2
			c1.3-3.7,2.3-7.5,3.7-11.3c0.5-1.3,1.7-2.3,2.4-3.6c1.8-3.6,3.3-7.4,5.2-11c0.6-1.2,1.8-2,2.6-3.1c2.3-3.5,4.4-7,6.6-10.5
			c0.1-0.2,0.3-0.3,0.4-0.4c2.4-2.6,4.8-5.2,7.2-7.8c2.7-3,5.1-6.3,8-9.1c3.5-3.4,7.4-6.4,11.2-9.5c1.3-1.1,3.1-1.6,4.6-2.5
			c3.3-2.3,6.6-4.7,9.8-7.1c0.2-0.2,0.6-0.2,0.8-0.3c3.2-1.5,6.5-2.9,9.7-4.4c3.5-1.7,7-3.6,10.6-5.3c1.3-0.6,2.9-0.4,4.3-0.8
			c3.8-1.3,7.6-2.8,11.4-4.1c0.6-0.2,1.4,0,2.1-0.1c0.7-0.1,1.5-0.2,2.2-0.4c3.9-0.9,7.9-1.7,11.8-2.6c0.3-0.1,0.6,0.1,0.9,0.1
			c3.5-0.1,7-0.3,10.6-0.5c0.5,0,1-0.6,1.5-0.9C32.6-106.4,36.4-106.4,40.2-106.4z M32.8,164c2.6-2.6,4.4-5,6.7-6.7
			c2.8-2.1,5.9-3.7,9-5.3c0.9-0.5,2.3-0.1,3.5-0.1c0.9,0,1.7,0.1,2.6,0c6.1-1.3,10.2,2.8,14.8,5.6c0.1,0,0.1,0.2,0.2,0.2
			c1.2,1.7,3.6,1.9,5.3,0.9c1.8-1,3.8-1.7,5.8-2.5c0.5-0.2,1.1-0.4,1.6-0.6c3.3-1.7,6.7-3.4,10-5.1c0.3-0.1,0.6-0.1,0.9-0.2
			c2.9-1.4,5.9-2.7,8.6-4.4c3.1-2,6-4.5,9-6.8c0.2-0.1,0.4-0.1,0.5-0.3c2.7-1.9,5.7-3.6,8.1-5.8c2.8-2.5,5.1-5.5,7.7-8.2
			c0.9-0.9,2.3-1.5,3.1-2.5c2.4-2.9,4.6-5.9,6.8-8.9c0.2-0.2,0.5-0.3,0.7-0.6c2-2.7,4.2-5.2,5.9-8c1.9-3.2,3.4-6.6,5.2-9.9
			c0.5-1,1.6-1.8,2-2.8c1.4-3.5,2.7-7,4-10.5c0.1-0.2,0.3-0.3,0.3-0.5c1.2-3.1,2.7-6.1,3.6-9.3c1-3.5,1.4-7.2,2.1-10.8
			c0.1-0.3,0.3-0.5,0.3-0.8c0.7-3.2,1.8-6.4,2.1-9.7c0.4-3.7,0.2-7.5,0.2-11.2c0-0.3,0.1-0.6,0.1-0.9c0.2-3.2,0.7-6.5,0.5-9.7
			c-0.2-3.5-1.1-7-1.7-10.5c-0.1-0.5,0-1-0.1-1.5c-0.4-3.3-0.5-6.7-1.3-9.9c-0.9-3.5-2.3-6.9-3.5-10.4c-0.1-0.4-0.2-0.8-0.3-1.2
			c-0.9-3.2-1.6-6.5-2.9-9.5c-1.4-3.3-3.4-6.4-5.2-9.6c-0.1-0.3-0.2-0.5-0.4-0.8c-1.4-3-2.6-6.2-4.3-9c-1.9-3.1-4.5-5.7-6.7-8.6
			c-0.9-1.1-1.2-2.7-2.1-3.7c-2.5-2.8-5.2-5.4-7.8-8.1c-0.1-0.1-0.2-0.4-0.3-0.5c-2.3-2.4-4.3-5.1-6.8-7.3c-2.8-2.4-6.1-4.4-9.1-6.6
			c-1-0.7-1.6-1.9-2.7-2.5c-3.2-2-6.5-3.7-9.7-5.6c-0.2-0.1-0.3-0.3-0.4-0.4C95.8-79,93-81,90-82.4c-3.3-1.5-6.9-2.4-10.3-3.7
			c-1.2-0.5-2.3-1.5-3.5-1.9c-3.6-1-7.3-1.8-10.9-2.7c-0.2,0-0.3-0.2-0.5-0.3c-3.3-0.8-6.6-1.9-10-2.4c-3.5-0.5-7.1-0.5-10.6-0.8
			c-0.3,0-0.6-0.2-0.9-0.2c-3.3-0.3-6.6-1-9.9-0.9c-3.7,0.1-7.4,0.8-11.2,1.2c-1.4,0.1-2.9-0.2-4.2,0c-3.6,0.6-7.2,1.5-10.8,2.2
			c-1.6,0.3-3.1,0.6-4.7,1c-3.1,0.9-6.2,1.9-9.3,2.8c-0.2,0.1-0.4,0-0.6,0c-3.2,1-6.4,1.8-9.4,3.2c-3.4,1.5-6.6,3.6-9.9,5.3
			c-1.1,0.6-2.4,0.6-3.4,1.3c-3.1,2-6.2,4.2-9.3,6.3c-0.2,0.1-0.4,0.1-0.5,0.3c-2.8,1.8-5.7,3.5-8.3,5.6c-2.9,2.4-5.3,5.3-8,7.9
			c-0.9,0.8-2.2,1.3-2.9,2.2c-2.4,2.8-4.7,5.8-7.1,8.7c-2.1,2.6-4.6,4.8-6.5,7.6c-2,2.9-3.3,6.2-5.1,9.3c-0.8,1.4-2.1,2.6-2.8,4
			c-1.6,3.4-3,6.9-4.4,10.3c-0.7,1.6-1.4,3.1-2,4.7c-1.1,3.1-2.1,6.2-3.1,9.3c-0.5,1.4-0.9,2.9-1.2,4.3c-0.7,3.2-1.3,6.4-2.1,9.6
			c-0.3,1.1-1,2.1-1.1,3.2c-0.3,3.7-0.5,7.5-0.7,11.2c0,0.3-0.2,0.6-0.2,0.9c-0.2,3.2-0.7,6.5-0.6,9.7c0.1,3.6,0.8,7.2,1.2,10.9
			c0,0.4-0.1,0.8,0,1.2c0.3,3.3,0.4,6.6,1,9.9c0.7,3.6,2.1,7,3.1,10.5c0.1,0.4,0,0.8,0.1,1.2c0.9,3.2,1.6,6.5,2.8,9.6
			c1.3,3.4,3.2,6.6,4.8,9.8c0.1,0.3,0.1,0.6,0.2,0.9c1.4,3,2.6,6.2,4.3,9c1.9,3.1,4.3,5.9,6.5,8.9c0.2,0.3,0.3,0.7,0.5,1.1
			c1.8,2.7,3.4,5.5,5.6,8c2.5,2.8,5.4,5.2,8.1,7.8c0.9,0.9,1.5,2.3,2.5,3.1c2.9,2.4,5.9,4.7,8.8,7c0.2,0.2,0.3,0.5,0.6,0.7
			c2.6,2.1,5.1,4.3,7.9,6.1c3.1,2,6.6,3.6,9.9,5.4c0.3,0.1,0.4,0.4,0.7,0.6c3,1.6,5.9,3.4,9,4.8c3.2,1.5,6.6,2.7,9.9,4.1
			c0.4,0.2,0.8,0.6,1.1,1c1.7,1.8,2.7,1.4,4.1-0.6c3.2-4.6,8.5-5.1,13.3-6.5c0.6-0.2,1.3,0.3,2,0.4c0.7,0.1,1.4,0.5,2,0.4
			c6.3-1.4,9.4,4.1,13.9,6.5C29.6,159.6,30.8,161.8,32.8,164z M0.4,173.3c-0.7,1.6-1.3,2.5-1.3,3.4c0,1.2,0.2,3.1,0.9,3.5
			c1.5,0.7,3.4,0.9,5.1,0.8c3.7-0.2,7.5-0.8,11.2-1c1.5-0.1,3.1,0.6,4.6,0.3c2.7-0.6,4.9,0,7.3,1.3c1.6,0.9,3.9,1.2,5.8,1
			c2.2-0.3,4.3-1.9,6.6-2c4.1-0.3,8.2-0.1,12.3-0.1c1,0,2,0.1,3.1,0.2c1.7,0.1,3.5,0,5.2,0.4c2.6,0.6,5.6-0.9,5.8-3.4
			c0.1-1.2-0.7-2.5-1-3.7c-1.7,0-3.2-0.3-4.5,0c-3.7,0.9-7.4,2.1-11.1,3c-1.6,0.4-3.7-0.5-5.1,0.1c-3.6,1.5-6.5,1-8.4-0.7
			c-5.3,0.6-9.7,1.1-14.1,1.5c-0.6,0.1-1.3-0.4-2-0.6c-0.8-0.2-1.7-0.3-2.5-0.4c-3.9-0.5-7.9-1-11.8-1.5c-0.3,0-0.5-0.2-0.8-0.3
			C3.9,174.4,2.2,173.9,0.4,173.3z M121.4,133.6c7.1,1.7,11.2,0.6,12.1-3.2C129.5,131.5,124.7,128.4,121.4,133.6z M39.6,183.3
			c4.4,1.6,6.2,7,11.9,6C45.4,181.5,44.2,180.8,39.6,183.3z M-86.5-33.7c8.2-1.5,11.2-2,10.9-5.7C-81.7-39.4-85.3-37.6-86.5-33.7z
			 M136.8,117.2c5.8,1.2,10.8-0.9,11.6-4.9C144.5,114,139.4,111.9,136.8,117.2z M-86-19.8c-6.3,0.7-10.2,3.7-10,7.8
			C-92.8-14.8-87.1-13.9-86-19.8z M68.8-92.2c-0.9-5.5-4.8-9.3-9.1-8.9C62.8-98,62.9-92.4,68.8-92.2z M-71.3,114.3
			c-2.6,5.1-1.7,10.7,2,12.3C-70.2,122.4-66.4,117.8-71.3,114.3z M-87.3,101.7c0.1-4.8,4.7-8.5,0.7-13.1
			C-90,93.4-90.5,98.1-87.3,101.7z M-89.6,82c-3.7,4.5-4.3,9.5-1.6,11.9C-87.1,85.5-87,84.7-89.6,82z M-99.5,72.1
			c5-7.3,6.1-9,3.6-11.6C-100.3,64.6-101.6,69-99.5,72.1z M-56.5,130.7c-1.1,6.9,0.2,10.8,4,11.8C-53.5,138.5-51.1,133.6-56.5,130.7
			z M-103,57c6.2-6.7,6.9-8.3,5-11.3C-102.7,49.2-104.5,53.2-103,57z M-66.6-51.2c-5.2-1.1-10,0.7-11.4,4.3
			C-70.2-46.8-67.6-47.8-66.6-51.2z M-50.7,135.6c-1,6.3,0.6,10.5,4.8,11.9C-47.7,143.6-45.2,138.4-50.7,135.6z M110.1-80.8
			c1.7,4.1-0.4,9.4,5.2,11.8C116.2-74.5,114.3-79.2,110.1-80.8z M-12.5,166.9c-2.2-9.7-2.9-10.8-7-11
			C-18.1,160.1-18.1,164.9-12.5,166.9z M32.1-97c-2.9-5.1-7.5-7.6-11.2-5.8C24.7-100.8,26.3-95.6,32.1-97z M97-88.3
			c1.6,7.4,2.6,11.5,6.2,10.3C102.8-84.2,100.7-87.7,97-88.3z M-31.1-87.6c9.2,3.8,10.4,4,12.3,1.3C-23-89.5-27.9-90.1-31.1-87.6z
			 M-1,182.8c4.6,6.5,7.6,8.1,10.9,6C6.9,185.8,4.4,182.2-1,182.8z M62,165.2c6,3.8,9.4,6.2,12,2.4C69.1,164.1,65,163.3,62,165.2z
			 M-96.8,53c-4.6,3.1-6.6,8.2-4.4,11.8C-99.6,60.8-94.5,58.4-96.8,53z M-97.2,79.5c4-6.5,6.1-9.8,2.8-11.7
			C-98.6,72.8-99.5,76.6-97.2,79.5z M68.4,194.4c-4.1-0.2-7.9-2.9-12.4-1C62.3,198.3,66.3,199,68.4,194.4z M169.6,7.6
			c-1.5,4.4-7,6.6-4.6,12.1C169.8,16,171.5,11.8,169.6,7.6z M164.1,12.3c4.7-4.3,6.1-8.9,3.8-11.6C162.6,8,162.3,8.8,164.1,12.3z
			 M-79.9,101.9c-2.8,5.5-2.6,10,0.3,12.3C-77,107.9-77,104.5-79.9,101.9z M-75.8,108.5c-2.6,5-2.1,10.1,1.1,11.9
			C-72.6,112.9-72.9,110.4-75.8,108.5z M-93.6-19.7c8.4-2.4,11-3.4,10.4-6.8C-88.5-26.3-92.5-23.8-93.6-19.7z M131.9,123.1
			c6.8,0.9,10.6-0.4,12.1-4.3C139.9,120.1,134.9,117.7,131.9,123.1z M138.8,125.3c-7.2-1-10.1-0.2-11.6,3.1
			C132.5,130,137.3,128.7,138.8,125.3z M81.8,164.5c-4.6-1.6-8.3-4.4-12.7-1.7C73,164,76.4,168.9,81.8,164.5z M15.9,154.4
			c0.7,2,1.6,3.9,2.2,6c0.6,2,0.7,4.3,3.5,4.7C23.2,159,20.5,154.1,15.9,154.4z M116.5-76.2c1.5,4.3-0.7,9.3,4.4,11.9
			C122.4-69.2,120.6-74.5,116.5-76.2z M-32.2,148.6c-0.5,5.7,1.9,10,6.2,10.8C-28.1,155.7-26.5,150.3-32.2,148.6z M123.2-71.1
			c-0.9,7.3,0.1,10.6,3.5,11.5C127.8-65.5,126.6-69.6,123.2-71.1z M-50.2-66.9c-6.2-2-10.8-1.1-12.4,2.7
			C-58.4-65.1-53.7-62-50.2-66.9z M-33.2,155.9c-1.7-10-1.9-10.2-5.6-11C-39.2,150.6-37.3,154.5-33.2,155.9z M82.7-94.6
			c2.2,3.4,1.3,9.2,7.7,10.3C88.8-89.1,88.2-93.7,82.7-94.6z M-11.8-89c-4.1-3.8-9.6-4.6-12-1.7C-14.8-86.6-14.7-86.6-11.8-89z
			 M139.8-54.5c-2.2,7.5-1.9,10.2,1.4,12C143.4-48,142.9-52.4,139.8-54.5z M96.4-81.2c0.2-5.5-2.7-10.1-6.9-10.6
			C92-88.2,90.7-82.6,96.4-81.2z M136.6-48.3c2.1-5.9,1.2-10.6-2.2-12.1C133.4-50.7,133.4-50.5,136.6-48.3z M115.9,146.3
			c-9.5-2.3-10.2-2.3-12,0.8C109.1,149.8,113.9,149.5,115.9,146.3z M145.5,105.3c6.2,0.2,10.4-2.2,11.1-6.3
			C152.8,101,147.4,99.5,145.5,105.3z M-83.3,95.3c-3.4,5.3-3.5,10.2-0.2,12.6C-83.3,103.6-79.3,99.8-83.3,95.3z M-63.9,132.3
			c-0.9-4.2,2.2-8.9-2.6-12.3C-68.8,124.9-67.8,130.5-63.9,132.3z M97.4,190.7c-3.9-2.5-4.9-8.3-10.9-7
			C89,188.8,93.1,191.6,97.4,190.7z M15.4,168c1.9,5.2,5.8,8.2,9.6,7.2C20.1,168.7,18.4,166.3,15.4,168z M163.1,84.8
			c-10,3.7-10.2,3.9-9.9,7.4C159.2,91.4,162.6,89,163.1,84.8z M34,173.3c-4.6,0.3-6.3-6.5-11.7-4.7C26,174.8,29.9,176.5,34,173.3z
			 M155.8,85.2c5.6-0.2,10.3-4,9.5-7.9C162.2,80.2,156.5,79.5,155.8,85.2z M-91.8,74.7c-4,4.1-5,9.2-2.4,12.5
			C-93.4,82.9-88.7,79.8-91.8,74.7z M158.5,78.5c6.2-1.4,9.6-4.5,9.4-8.8C164.7,72.7,158.8,72.3,158.5,78.5z M59,189.5
			c-5.2-7-6.6-7.9-10.3-6.9C50.9,187.3,55.2,190.2,59,189.5z M49.3,193.9c4.4,6.4,7.9,7.8,11.7,4.7C57.3,197,54.3,193.8,49.3,193.9z
			 M83.9,157.2c4.1,3.4,9.2,4,12.1,1.5C87.9,155,85.8,154.3,83.9,157.2z M171.9,47.2c-7,4.8-9,6.2-7.7,9.4
			C169.2,55.2,172.7,50.9,171.9,47.2z M-82.6-39.9c4.2-1.9,9.5,0.1,11.7-5.5C-76.8-46.1-81.1-44.2-82.6-39.9z M149-42.1
			c-2.8,9.4-2.8,10.2,0.2,12.2C152.1-35.3,152.1-39.5,149-42.1z M152.4-22.9c3.5-5.5,3.6-10.5,0.4-12.5
			C152.7-31.3,148.5-27.5,152.4-22.9z M-90-26.7c10.3-3,10.3-3,10.3-6.4C-85.5-32.9-89.5-30.6-90-26.7z M157-28.8
			c-3.6,8.6-4.3,10.4-1.3,12.2C159-20.9,159.6-25.6,157-28.8z M-50.6-74.9c7.3,2.5,10.3,2.2,12-1C-44.1-78.2-48.5-77.9-50.6-74.9z
			 M-88.9-13c-6.3,1.1-9.9,4.2-9.8,8.4C-95.5-7.5-89.7-6.9-88.9-13z M36.7-103.8c5.4,7.3,6.6,8.1,10.1,7.1
			C44.8-101.6,41-104.4,36.7-103.8z M-4.4-91.2c-4.7-4.2-9.4-5.1-12.6-2.4C-12.7-92.8-9.6-88.1-4.4-91.2z M172.6,39.2
			c-7.6,5.6-8.2,6.5-7.2,10.1C170.5,46.9,173.1,43.4,172.6,39.2z M2.7-93.3c-4.4-4.3-9-5.5-12.7-3.1C-5.6-95.5-2.6-90.3,2.7-93.3z
			 M76-90c-1-5.9-4.5-9.7-8.6-9.2C70.3-96.2,70-90.6,76-90z M9.9-94.7c-3.8-4.6-8.7-6.2-12.1-3.8C1.9-97.3,4.5-92.4,9.9-94.7z
			 M17.4-96c-4.3-5-8.3-6.5-12.2-4.3C9.5-99.1,11.6-93.7,17.4-96z M172.5,30.7c-2.4,4.2-8.2,5.4-6.8,11.3
			C170.9,39.3,173.4,35.5,172.5,30.7z M-44.8,140.3c-0.9,6,1,10.4,5.1,11.5C-41.3,147.9-39.3,142.8-44.8,140.3z M-55.9-61.9
			c-6.2-1.8-10.8-0.6-12.1,3.3C-64-59.8-59-56.7-55.9-61.9z M97.2,150.8c5.5,2.9,9.8,2.9,12.4,0.1C103.2,148.1,99.8,148,97.2,150.8z
			 M46.7,155.6c8.8,5.3,8.8,5.3,10.6,4.8C54.5,154,50.9,152.3,46.7,155.6z M61.7-93.9c-1.7-5.8-5.7-9.3-9.6-8.3
			C55.3-99.5,55.7-94,61.7-93.9z M-8.4,183.5c4.6,6.1,7,7.5,10.4,5.9C-0.9,184.6-5.1,182.2-8.4,183.5z M55.4,154
			c2.2,3.4,4.2,6.6,6.2,9.8C63.6,157.8,60.7,152.2,55.4,154z M103.9-85c0.9,8.7,2.1,11,5.9,11.1C108.8-78.1,109.1-82.7,103.9-85z
			 M32.5,194.5c-4.3,0.1-8-3.8-12.5-0.9C24.2,197.7,29.2,198.1,32.5,194.5z M46.1,163.5c-6.9-1.7-10.3-1-11.3,2.4
			C40,167.4,44.3,166.5,46.1,163.5z M75.1-97.3c4.5,9.5,4.5,9.5,7.8,9.5C82.5-93.1,79.2-97.2,75.1-97.3z M54.7,166.5
			c5.8,5.4,8.6,6.3,12.3,3.8C63.3,167.9,60,165.2,54.7,166.5z M54.4-95.8c-2.9-5.8-6.1-8.2-9.7-7.4C49.6-96.1,51.3-94.3,54.4-95.8z
			 M-104.7,33.6c7.9-6.7,8.1-7,6.8-10.3C-103,25.7-105.6,29.6-104.7,33.6z M171.2,15.7c-6.5,6.9-7,8-5.3,11.1
			C170.5,24,172.6,19.7,171.2,15.7z M-96.7,15.7c-5.9,2.5-8.8,6.5-7.4,10.1C-101.6,22.5-95.9,21.8-96.7,15.7z M160.3-21.7
			c-4.3,9.1-4.4,9.5-1.9,12.1C162-13.7,162.8-18.5,160.3-21.7z M160.2,92.3c-8.2,2.2-10.9,3-10.5,6.4
			C154.7,98.9,159.1,96.3,160.2,92.3z M-91.8-5.7c-5.1,0.5-9.4,4.5-8.8,8.1C-92.4-1.4-91.7-2.1-91.8-5.7z M141.4,111.3
			c5.3,1,10.4-1.4,11.3-5.5C148.8,107.6,143.6,105.8,141.4,111.3z M17.5,189.2c-3.4-5.2-7.5-7.5-11.1-6.1
			C10.1,185.3,11.5,190.9,17.5,189.2z M-104.6,41.4c6.5-6.2,8.1-7.5,6.3-10.6C-103.1,33.3-105.6,37.3-104.6,41.4z M172.1,23.5
			c-5.9,6.2-8.1,7.8-5.8,10.9C171.3,31,173.4,27.3,172.1,23.5z M68.6,181.5c6.7-3.5,8.7-7.4,5.4-11
			C72.2,174.1,68.9,176.7,68.6,181.5z M59.4,172.7c-4.4-4.5-8.9-6.1-11.9-4.1C51.5,170.1,53.6,175.7,59.4,172.7z M-102.5,10.8
			c3.1-3.5,8.9-3.5,8.8-9.5C-99.4,2.8-102.7,6.1-102.5,10.8z M38.2,190.8c-5.7-2.9-9.7-2.8-11.9,0.1
			C30.7,193.5,35.6,193.5,38.2,190.8z M-25.4-82.7c-3.8-3.4-9.8-3.8-12.6-0.5C-33.7-83-29.8-79.2-25.4-82.7z M115.9,138.5
			c6.4,1.9,10.3,1.2,12.1-2.1C120.2,134.9,117.8,135.3,115.9,138.5z M-44.6-79.3c10.2,2.7,10.4,2.7,12.3-0.3
			C-37.3-82.4-41.8-82.3-44.6-79.3z M-25.8,152.2c0,5.8,2.8,10.2,6.6,10.4C-21.1,159-19.8,153.6-25.8,152.2z M-104,49.9
			c2.2-4.4,7.6-6.1,5.9-11.8C-102.8,40.8-105.1,45-104,49.9z M169.7,61.9c-3,3.5-9.1,3.3-8.8,9.5C167,69.4,169.9,66.5,169.7,61.9z
			 M109.7,142.8c6.4,2.6,11,1.9,12.4-1.7C118,141.7,113.5,138.2,109.7,142.8z M-73.7-53c9.1-0.3,12-0.3,11.9-4.1
			C-66-57-70.5-58-73.7-53z M-23.7,183.9c5.8,6.6,7.6,8,10.6,6C-15.8,185.4-19.9,183-23.7,183.9z M131.5-53.8c2.2-5,0.9-10.8-2.9-12
			C129.6-61.8,126.8-57.2,131.5-53.8z M-5.2,190c-3.7-5.4-7.4-7.5-11.2-6.1C-12.7,186.2-11.2,191.6-5.2,190z M-44.5-71.6
			c-6.5-2.1-10.9-1.4-12,1.9C-46.5-68.6-46.5-68.6-44.5-71.6z M144.5-48.6c-2.1,10.1-2.1,10.3,0.9,12.2
			C148-41.7,147.7-46,144.5-48.6z M79,183.5c2.4,5.2,7.1,8.2,10.5,6.7C86,187.8,84.9,182.2,79,183.5z M90.6,154.3
			c5.5,3.2,9.7,3.4,12.2,0.7C96.3,151.8,93.3,151.6,90.6,154.3z M17.1,174.7c-3.2-6.8-5.6-9-9-8.1C10,172.2,13.3,175.1,17.1,174.7z
			 M62.2,190.3c0.1,0.4,0.2,0.7,0.3,1.1c5.7,2.3,11.4,1.3,11.1-3.9C69.7,188.4,66,189.3,62.2,190.3z M163.1-14.9
			c-1,4.6-5.7,7.7-2.7,12.8C164.4-6.2,165.6-10.9,163.1-14.9z M17.4,200.7c-4.6-1.9-4.8-8-10.4-7.8C8.6,199.1,12.1,202,17.4,200.7z
			 M-95.3,8.5c-5.6,1.7-8.9,5.5-8.1,9.6C-100.7,15-95.3,14.5-95.3,8.5z M6.1,154.7c4.4,1,5.5,6.2,10.1,6.9
			C16.2,155.6,11.3,152.1,6.1,154.7z M-61.9,125.4c-1.2,7.5-0.1,11.1,3.5,11.9C-59.5,133.4-56.4,128.5-61.9,125.4z M165.9-7.1
			c-4.3,7-6.1,9.3-3.2,11.8C166.8,0.8,168-3.6,165.9-7.1z M13.5-102.1c5.7,5.3,8.5,7.6,11,5C20.8-102,16.9-103.7,13.5-102.1z
			 M75.5,178.5c-2.8,3.2-7,4.3-8.9,8.4C73.7,186.9,76.8,184,75.5,178.5z M39.7,160.6c5,1.3,9.9,1.3,11.7,0
			C46.4,156.3,42.4,156.3,39.7,160.6z M13.8,194.2c2.1,5.4,8.1,7.8,11.3,4.2C20.9,198.1,18.6,193.1,13.8,194.2z M-1.8,159.3
			c4.7-1.5,8.1,3.2,12.4,1C7.1,155.4,2,154.7-1.8,159.3z M89,162.3c-4.9-3.9-9.4-4.8-12.5-2.3C80.7,161.4,84.1,165.3,89,162.3z
			 M53.1,200.6c-3.6-2.6-5.2-6.9-9.8-8.1C45.1,199.8,47.7,202.1,53.1,200.6z M39.5-97.1c-3-5.5-7.1-7.9-10.5-6.4
			C35.1-96.6,35.6-96.3,39.5-97.1z M162.6,64.1c6.2-2.2,9.5-6,7.9-9.4C167.9,57.9,162.3,58.2,162.6,64.1z M41.1,168.2
			c-4.2,0.7-8-2.1-12.1,0C32.8,172.6,38.2,172.7,41.1,168.2z M44.1,189.9c-3.4-5.8-8.5-6.9-12-2.7C36.1,188.1,39.7,188.9,44.1,189.9
			z M14.4,182.7c3.1,2.3,4.4,7.1,9.6,6.5C22.8,184.5,19,181.8,14.4,182.7z M-2.1,172.7c-6.8,2.3-9.4,5.8-7.2,10.1
			C-7.8,178.6-2.8,177.7-2.1,172.7z M0.6,167c-6.3-0.4-10.6,2.6-10,7.2C-6.6,170.9-1.6,171.5,0.6,167z M52.1,173.9
			c-3-2.1-5.4-3.9-7.9-5.6c-0.3,0.1-0.6,0.2-0.9,0.3c0,1-0.4,2.4,0.1,3.1C45.8,175,48.3,175.6,52.1,173.9z M-20.2,190.2
			c0.1-0.4,0.2-0.7,0.3-1.1c-2.4-1.7-4.8-3.4-7.9-5.5c0.1,3,0.2,4.9,0.3,7C-24.8,190.5-22.5,190.4-20.2,190.2z M5.1,162.8
			c-5.9-2.8-10.6-1.5-11.8,3.3C-3.1,164,1.3,165.6,5.1,162.8z M8,199.8c-1.3-2.8-2.6-5.6-3.9-8.6c-1.1,0.5-1.9,0.9-2.7,1.2
			C1.9,197.6,4.3,200.2,8,199.8z M40.8,191.9c-2.1,1.3-3.2,2.6-2.1,5c1.1,2.4,2.8,3.3,5.5,2.9C43.1,197.2,42,194.7,40.8,191.9z
			 M9.6,173.2c-1.3-2.2-2.3-4.3-3.6-6.1c-0.4-0.5-1.7-0.9-2.3-0.6c-0.5,0.2-1,1.4-0.9,2.1C3.1,171.1,6.4,173.4,9.6,173.2z
			 M27.4,166.5c0.1-5.2-0.7-6.9-3.6-7.8c0,2.4,0,4.8,0,7.2C25.1,166.1,26.2,166.3,27.4,166.5z M64,187c-3.2-4.5-4.7-5.2-7.8-4
			C58.9,188,60.7,188.9,64,187z M92.4,184c2.4,2.5,4.2,4.4,6,6.3c0.2-0.2,0.5-0.3,0.7-0.5c-0.1-1.9-0.2-3.8-0.3-5.8
			C96.7,184,95,184,92.4,184z M-13.2,158.7c1.1,2.9,2.1,5.6,3.4,8.8C-7.4,160.8-8,159.3-13.2,158.7z M22,182.4
			c1.4,1.9,2.6,3.5,3.9,5.3c0.9-0.4,2-0.9,3-1.4C26.9,182.5,25.7,181.8,22,182.4z M77.6,185.3c-0.4,0-0.7-0.1-1.1-0.1
			c-0.1,1.3-0.7,3-0.1,3.8c1.2,1.5,3.1,2.2,5.3,1.2C80.3,188.5,79,186.9,77.6,185.3z M65,156.3c-0.5,0.3-1,0.6-1.5,0.9
			c0.7,1.6,1.3,3.1,2,4.7c0.9-0.5,1.7-1,2.6-1.5C67.1,158.9,66,157.6,65,156.3z M48.4,163.9c0.1,0.6,0.2,1.2,0.3,1.8
			c3.1-0.7,6.3-1.4,9.4-2.1c0-0.3-0.1-0.6-0.1-1C54.8,163.1,51.6,163.5,48.4,163.9z M-0.6,197.3c0.3-0.2,0.6-0.4,0.8-0.6
			c-0.3-2.4-0.2-5.1-5.1-4.8C-3.2,194-1.9,195.7-0.6,197.3z M8.6,163.8c3.4,0.8,5.9,1.4,9.1,2.2C16,163.2,12,162.4,8.6,163.8z
			 M41.3,172.1c-1.3,0.6-2.4,1.1-3.5,1.7c0,0.3,0,0.7,0,1c1.9,0.3,3.8,0.5,5.7,0.8c0.1-0.3,0.2-0.7,0.2-1
			C43,173.9,42.2,173.1,41.3,172.1z"/>
	</g>
</g>
</svg>
