<?xml version="1.0" encoding="utf-8"?>
<!-- Generator: Adobe Illustrator 18.1.1, SVG Export Plug-In . SVG Version: 6.00 Build 0)  -->
<!DOCTYPE svg PUBLIC "-//W3C//DTD SVG 1.1//EN" "http://www.w3.org/Graphics/SVG/1.1/DTD/svg11.dtd">
<svg version="1.1" id="Layer_1" xmlns="http://www.w3.org/2000/svg" xmlns:xlink="http://www.w3.org/1999/xlink" x="0px" y="0px"
	 viewBox="0 0 32.1 32.1" enable-background="new 0 0 32.1 32.1" xml:space="preserve">
<g>
	<g>
		<path fill="#FDFDFE" d="M0.1,16c0-5.3,0-10.5,0-15.8C0,0.1,0.1,0,0.2,0c10.5,0,21.1,0,31.6,0c0.2,0,0.2,0.1,0.2,0.2
			c0,10.5,0,21,0,31.6c0,0.2,0,0.2-0.2,0.2c-10.5,0-21,0-31.6,0C0.1,32.1,0,32,0,31.8C0.1,26.6,0.1,21.3,0.1,16z M11.3,11.9
			c0,3.2,0,6.4,0,9.6c0,0.1,0,0.2,0,0.3c0,0.2-0.1,0.3-0.3,0.3c-0.1,0-0.2,0-0.3,0c-2.4,0-4.9,0-7.3,0c-0.3,0-0.6,0-0.9,0
			c-0.2,0-0.3,0.1-0.2,0.3c0.1,0.2,0.2,0.2,0.4,0.2c1,0,2.1,0,3.1,0c0.2,0,0.4,0,0.4,0.3c0,0.2-0.1,0.3-0.4,0.3c0,0-0.1,0-0.1,0
			c-0.9,0-1.8,0-2.7,0c-0.3,0-0.4,0.1-0.2,0.3c1,2.3,2.4,4.2,4.4,5.6c0.2,0.2,0.5,0.2,0.8,0.2c4.6,0,9.3,0,13.9,0
			c0.9,0,0.8,0.1,1.1-0.8c0.6-1.7,1.7-2.9,3.6-3.2c0.3-0.1,0.7-0.1,1-0.3c0.7-0.4,1-1,1.2-1.7c0-0.2,0-0.3-0.2-0.2
			c-0.3,0-0.6,0-0.9,0c-0.2,0-0.3-0.1-0.3-0.3c0-0.2,0.2-0.3,0.3-0.3c0.2,0,0.4,0,0.6,0c0.5,0.1,0.8-0.1,1-0.6c0,0,0,0,0,0
			c0.1-0.2,0.1-0.3-0.1-0.3c0,0-0.1,0-0.1,0c-5.3,0-10.7,0-16,0c-0.2,0-0.4,0-0.5,0.2c0,0.1-0.1,0.1-0.2,0.1c-0.1,0-0.1-0.1-0.2-0.2
			c0-0.1,0-0.2,0-0.3c0-6.4,0-12.8,0-19.3c0-0.1,0-0.2,0-0.2c0-0.2-0.1-0.3-0.3-0.3c-0.4-0.1-0.6,0-0.6,0.5
			C11.3,5.4,11.3,8.6,11.3,11.9z M20.6,21.3c2.5,0,5.1,0,7.6,0c0.6,0,0.6,0,0.3-0.5C25.3,15.2,22.1,9.6,18.9,4
			c-0.3-0.5-0.3-0.5-0.7-0.1c-1.8,2.2-3.6,4.3-5.5,6.5c-0.2,0.2-0.2,0.4-0.2,0.7c0,3.2,0,6.5,0,9.7c0,0.4,0,0.4,0.4,0.4
			C15.5,21.3,18.1,21.3,20.6,21.3z M23.6,3.5c-1.3,0-2.6,0-3.9,0c-0.3,0-0.3,0.1-0.2,0.3c0.7,1.2,1.3,2.3,2,3.5
			c0.1,0.2,0.3,0.3,0.5,0.3c1.7,0,3.5,0,5.2,0c0.1,0,0.2,0,0.3-0.1c0.1-0.1-0.1-0.2-0.1-0.3c-0.4-0.5-0.9-1.1-1.3-1.6
			C25.8,5.3,25.8,5.2,26,5c0.4-0.3,0.8-0.6,1.2-1c0.1-0.1,0.2-0.2,0.3-0.3c0.1-0.1,0.1-0.1,0.1-0.2c0-0.1-0.1-0.1-0.2-0.1
			c-0.1,0-0.1,0-0.2,0C26,3.5,24.8,3.5,23.6,3.5z M10.8,17.4c0-1.2,0-2.5,0-3.7c0-0.2,0-0.3,0-0.5c0-0.1,0-0.1-0.1-0.2
			c-0.1,0-0.1,0-0.2,0.1c0,0-0.1,0.1-0.1,0.1c-2.1,2.4-4.1,4.9-6.2,7.3c-0.2,0.3-0.5,0.6-0.7,0.9c-0.1,0.1-0.1,0.1-0.1,0.2
			c0,0.1,0.1,0.1,0.2,0.1c0,0,0.1,0,0.1,0c2.2,0,4.4,0,6.6,0c0.4,0,0.4-0.1,0.4-0.4C10.8,20,10.8,18.7,10.8,17.4z M16.2,2.2
			C16.2,2.2,16.2,2.2,16.2,2.2c-1.2,0-2.3,0-3.4,0c-0.1,0-0.2,0.1-0.2,0.2c0,0.3,0,0.6,0,0.9c0,0.3,0,0.3,0.3,0.3c1,0,1.9,0,2.9,0
			c0.1,0,0.2,0,0.3-0.1c-0.2-0.1-0.3-0.2-0.5-0.3c-0.6-0.4-0.6-0.4,0-0.7C15.9,2.4,16.1,2.3,16.2,2.2z"/>
		<path fill="#1B429B" d="M11.3,11.9c0-3.2,0-6.5,0-9.7c0-0.4,0.2-0.5,0.6-0.5c0.2,0,0.3,0.1,0.3,0.3c0,0.1,0,0.1,0,0.2
			c0,6.4,0,12.8,0,19.3c0,0.1,0,0.2,0,0.3c0,0.1,0.1,0.2,0.2,0.2c0.1,0,0.2,0,0.2-0.1c0.1-0.2,0.3-0.2,0.5-0.2c5.3,0,10.7,0,16,0
			c0,0,0.1,0,0.1,0c0.2,0,0.3,0.1,0.1,0.3c0,0,0,0,0,0c-0.2,0.5-0.5,0.6-1,0.6c-0.2,0-0.4,0-0.6,0c-0.2,0-0.3,0.1-0.3,0.3
			c0,0.2,0.1,0.3,0.3,0.3c0.3,0,0.6,0,0.9,0c0.2,0,0.3,0.1,0.2,0.2c-0.2,0.7-0.5,1.3-1.2,1.7c-0.3,0.2-0.7,0.2-1,0.3
			c-1.9,0.3-3,1.4-3.6,3.2c-0.3,0.9-0.2,0.8-1.1,0.8c-4.6,0-9.3,0-13.9,0c-0.3,0-0.5-0.1-0.8-0.2c-2-1.5-3.4-3.3-4.4-5.6
			c-0.1-0.3-0.1-0.3,0.2-0.3c0.9,0,1.8,0,2.7,0c0,0,0.1,0,0.1,0c0.3,0,0.4-0.1,0.4-0.3c0-0.3-0.2-0.3-0.4-0.3c-1,0-2.1,0-3.1,0
			c-0.2,0-0.4,0-0.4-0.2c0-0.2,0-0.3,0.2-0.3c0.3,0,0.6,0,0.9,0c2.4,0,4.9,0,7.3,0c0.1,0,0.2,0,0.3,0c0.2,0,0.2-0.1,0.3-0.3
			c0-0.1,0-0.2,0-0.3C11.3,18.3,11.3,15.1,11.3,11.9z M12.4,22.6c-1.2,0-2.5,0-3.7,0c-0.1,0-0.2,0-0.2,0c-0.1,0-0.2,0.1-0.3,0.3
			c0,0.2,0.1,0.3,0.2,0.3c0.1,0,0.2,0,0.2,0c2.5,0,4.9,0,7.4,0c0.1,0,0.2,0,0.3,0c0.1,0,0.2-0.1,0.2-0.3c0-0.1,0-0.2-0.2-0.3
			c-0.1,0-0.2,0-0.3,0C14.9,22.6,13.7,22.6,12.4,22.6z M21.9,22.6c-0.5,0-1,0-1.6,0c-0.5,0-0.9,0-1.4,0c-0.2,0-0.3,0.1-0.3,0.3
			c0,0.2,0.1,0.3,0.3,0.3c0,0,0.1,0,0.1,0c1.9,0,3.8,0,5.6,0c0.1,0,0.2,0,0.3,0c0.2,0,0.2-0.2,0.2-0.4c0-0.2-0.2-0.2-0.4-0.2
			C23.8,22.6,22.9,22.6,21.9,22.6z"/>
		<path fill="#1F459D" d="M20.6,21.3c-2.5,0-5.1,0-7.6,0c-0.4,0-0.4,0-0.4-0.4c0-3.2,0-6.5,0-9.7c0-0.3,0.1-0.5,0.2-0.7
			c1.8-2.2,3.6-4.3,5.5-6.5c0.4-0.4,0.4-0.4,0.7,0.1c3.2,5.6,6.4,11.2,9.5,16.8c0.3,0.5,0.3,0.5-0.3,0.5
			C25.7,21.3,23.1,21.3,20.6,21.3z M17.8,5.4C17.8,5.4,17.8,5.4,17.8,5.4c-0.1,0.2-0.4,0.2-0.3,0.6c2.8,4.9,5.6,9.8,8.4,14.6
			c0.1,0.1,0.2,0.2,0.3,0.2c0.1,0,0.3,0,0.3,0c0.1-0.1-0.1-0.2-0.1-0.3c-2-3.5-4-7-6-10.6C19.5,8.4,18.7,6.9,17.8,5.4z M25.4,20.7
			c-2.8-4.8-5.5-9.7-8.3-14.5c-0.4,0.4-0.4,0.4-0.2,0.6c2.6,4.5,5.1,9,7.7,13.5C24.7,20.7,24.9,20.8,25.4,20.7z M27.3,20.7
			c0.1,0,0.2,0,0.2-0.1c0.1-0.1,0-0.2-0.1-0.3c-2.8-4.9-5.6-9.8-8.3-14.6c-0.2-0.3-0.4-0.6-0.5-0.9c-0.1-0.2-0.2-0.2-0.3,0
			c-0.1,0.1,0,0.2,0,0.3c1.8,3.2,3.7,6.5,5.5,9.7c1.1,1.9,2.2,3.9,3.3,5.8C27.2,20.6,27.2,20.8,27.3,20.7z M15.7,7.9
			c-0.4,0.3-0.4,0.3-0.2,0.7c2.2,3.9,4.5,7.9,6.7,11.8c0.2,0.4,0.3,0.4,0.7,0.3C20.6,16.4,18.1,12.2,15.7,7.9z M16.4,7.1
			C16,7.4,16,7.4,16.2,7.8c2.4,4.2,4.8,8.4,7.2,12.6c0.2,0.4,0.2,0.4,0.7,0.3C21.6,16.2,19,11.6,16.4,7.1z M21.8,20.7
			c-2.3-4-4.6-8-6.8-12c-0.4,0.4-0.4,0.4-0.2,0.7c2.1,3.6,4.1,7.2,6.2,10.9C21.2,20.7,21.4,20.8,21.8,20.7z M19.4,20.7
			c-2-3.5-3.9-6.9-5.9-10.4c-0.1,0.1-0.1,0.1-0.1,0.2c-0.2,0.2-0.2,0.3,0,0.5c0.3,0.6,0.6,1.1,1,1.7c1.5,2.6,3,5.2,4.5,7.8
			c0.1,0.1,0.2,0.2,0.3,0.2C19.2,20.7,19.3,20.7,19.4,20.7z M20.6,20.7c-2.1-3.7-4.2-7.4-6.4-11.1c-0.3,0.3-0.3,0.3-0.1,0.7
			C16,13.7,18,17,19.9,20.4C20,20.7,20.2,20.8,20.6,20.7z M12.9,11.5C12.9,11.5,12.9,11.5,12.9,11.5c0,0.2,0,0.4,0,0.5
			c0,0.3,0.1,0.5,0.2,0.7c1.5,2.6,2.9,5.1,4.4,7.7c0.2,0.4,0.3,0.4,0.7,0.3C16.5,17.6,14.7,14.6,12.9,11.5z M12.9,13.6
			c-0.1,0.6,0,1,0.3,1.4c1,1.8,2.1,3.6,3.1,5.4c0.2,0.4,0.2,0.4,0.7,0.3C15.6,18.3,14.3,16,12.9,13.6z M12.9,15.6
			C12.9,15.6,12.9,15.6,12.9,15.6c0,0.3,0,0.6,0,0.9c0,0.1,0,0.1,0.1,0.2c0.7,1.3,1.5,2.6,2.2,3.9c0,0.1,0.1,0.1,0.2,0.1
			c0.1,0,0.3,0,0.5,0C14.9,19,13.9,17.3,12.9,15.6z M13,17.8C12.9,17.8,12.9,17.8,13,17.8c0,0.2,0,0.3-0.1,0.4c0,0.3,0,0.6,0.2,0.9
			c0.3,0.4,0.5,0.9,0.8,1.3c0.2,0.4,0.3,0.4,0.7,0.3C14.1,19.7,13.5,18.7,13,17.8z M12.9,19.9C12.9,19.9,12.9,19.9,12.9,19.9
			c0,0.2,0,0.3,0,0.4c0,0.4,0.1,0.5,0.5,0.4C13.3,20.4,13.1,20.2,12.9,19.9z"/>
		<path fill="#1B429B" d="M23.6,3.5c1.2,0,2.4,0,3.6,0c0.1,0,0.2,0,0.2,0c0.1,0,0.2,0,0.2,0.1c0,0.1,0,0.2-0.1,0.2
			c-0.1,0.1-0.2,0.2-0.3,0.3c-0.4,0.3-0.8,0.6-1.2,1c-0.3,0.2-0.3,0.3-0.1,0.6c0.4,0.5,0.9,1.1,1.3,1.6c0.1,0.1,0.2,0.2,0.1,0.3
			c0,0.1-0.2,0.1-0.3,0.1c-1.7,0-3.5,0-5.2,0c-0.2,0-0.4-0.1-0.5-0.3c-0.7-1.2-1.3-2.3-2-3.5c-0.1-0.2-0.1-0.3,0.2-0.3
			C21,3.5,22.3,3.5,23.6,3.5z"/>
		<path fill="#1F459D" d="M10.8,17.4c0,1.3,0,2.6,0,3.9c0,0.4-0.1,0.4-0.4,0.4c-2.2,0-4.4,0-6.6,0c0,0-0.1,0-0.1,0
			c-0.1,0-0.2,0-0.2-0.1c0-0.1,0-0.2,0.1-0.2c0.2-0.3,0.5-0.6,0.7-0.9c2.1-2.4,4.1-4.9,6.2-7.3c0,0,0.1-0.1,0.1-0.1
			c0,0,0.1-0.1,0.2-0.1c0.1,0,0.1,0.1,0.1,0.2c0,0.2,0,0.3,0,0.5C10.8,14.9,10.8,16.1,10.8,17.4z M9.4,15.2
			C9.4,15.2,9.4,15.2,9.4,15.2C9.3,15.4,9,15.5,9,15.8c0,1.7,0,3.5,0,5.2c0,0.2,0.1,0.2,0.2,0.2c0.1,0,0.2,0,0.2-0.2
			C9.4,19.1,9.4,17.2,9.4,15.2z M10.2,17.7C10.2,17.7,10.2,17.7,10.2,17.7c0-1,0-2.1,0-3.1c0-0.1,0-0.3-0.1-0.3
			c-0.1,0-0.2,0.1-0.2,0.3c0,0,0,0,0,0.1c0,2.1,0,4.2,0,6.3c0,0.1,0,0.2,0.1,0.2c0.1,0,0.2,0,0.2-0.1c0-0.1,0-0.2,0-0.2
			C10.2,19.8,10.2,18.8,10.2,17.7z M8.5,16.3C8.2,16.5,8,16.8,8,17.1c0,1.3,0,2.5,0,3.8c0,0.2,0,0.3,0.2,0.3c0.3,0,0.2-0.2,0.2-0.3
			c0-1.4,0-2.9,0-4.3C8.5,16.5,8.5,16.4,8.5,16.3z M7.6,17.4C7.6,17.4,7.5,17.4,7.6,17.4c-0.1,0.2-0.4,0.3-0.4,0.5c0,1,0,2.1,0,3.1
			c0,0.2,0.1,0.2,0.2,0.2c0.1,0,0.2,0,0.2-0.2C7.6,19.8,7.6,18.6,7.6,17.4z M6.7,18.4c-0.2,0.2-0.4,0.3-0.4,0.5c0,0.7,0,1.4,0,2.1
			c0,0.2,0.1,0.1,0.2,0.1c0.1,0,0.2,0,0.2-0.2C6.7,20.2,6.7,19.3,6.7,18.4z M5.8,19.5c-0.2,0.2-0.4,0.3-0.4,0.6c0,0.3,0,0.6,0,1
			c0,0.2,0.1,0.2,0.2,0.2c0.1,0,0.2,0,0.2-0.2C5.8,20.5,5.8,20,5.8,19.5z M4.9,20.5c-0.1,0.2-0.2,0.3-0.3,0.4
			c-0.1,0.1-0.2,0.1-0.1,0.2c0.1,0.1,0.2,0.1,0.3,0.1c0.1,0,0.2,0,0.2-0.2C4.9,20.9,4.9,20.7,4.9,20.5z"/>
		<path fill="#1F459D" d="M16.2,2.2c-0.1,0.2-0.3,0.2-0.5,0.3c-0.7,0.4-0.6,0.3,0,0.7c0.2,0.1,0.3,0.2,0.5,0.3
			c-0.1,0.1-0.2,0.1-0.3,0.1c-1,0-1.9,0-2.9,0c-0.3,0-0.3,0-0.3-0.3c0-0.3,0-0.6,0-0.9c0-0.1,0-0.2,0.2-0.2
			C14,2.1,15.1,2.1,16.2,2.2C16.2,2.2,16.2,2.2,16.2,2.2z"/>
		<path fill="#FDFDFE" d="M12.4,22.6c1.2,0,2.5,0,3.7,0c0.1,0,0.2,0,0.3,0c0.1,0.1,0.2,0.1,0.2,0.3c0,0.1,0,0.2-0.2,0.3
			c-0.1,0-0.2,0-0.3,0c-2.5,0-4.9,0-7.4,0c-0.1,0-0.2,0-0.2,0c-0.2,0-0.2-0.1-0.2-0.3c0-0.2,0.1-0.2,0.3-0.3c0.1,0,0.2,0,0.2,0
			C9.9,22.6,11.2,22.6,12.4,22.6z"/>
		<path fill="#FDFDFE" d="M21.9,22.6c1,0,1.9,0,2.9,0c0.2,0,0.3,0,0.4,0.2c0,0.2,0,0.3-0.2,0.4c-0.1,0-0.2,0-0.3,0
			c-1.9,0-3.8,0-5.6,0c0,0-0.1,0-0.1,0c-0.2,0-0.3-0.1-0.3-0.3c0-0.2,0.2-0.3,0.3-0.3c0.5,0,0.9,0,1.4,0
			C20.8,22.6,21.4,22.6,21.9,22.6z"/>
		<path fill="#FDFDFE" d="M17.8,5.4c0.9,1.5,1.7,3,2.6,4.5c2,3.5,4,7,6,10.6c0.1,0.1,0.2,0.2,0.1,0.3c-0.1,0.1-0.2,0-0.3,0
			c-0.2,0-0.2,0-0.3-0.2c-2.8-4.9-5.6-9.8-8.4-14.6C17.4,5.6,17.7,5.6,17.8,5.4C17.8,5.4,17.8,5.4,17.8,5.4z"/>
		<path fill="#FDFDFE" d="M25.4,20.7c-0.4,0.1-0.6-0.1-0.8-0.4c-2.5-4.5-5.1-9-7.7-13.5c-0.2-0.3-0.2-0.3,0.2-0.6
			C19.8,11,22.6,15.9,25.4,20.7z"/>
		<path fill="#FDFDFE" d="M27.3,20.7c-0.1,0-0.2-0.1-0.2-0.2c-1.1-1.9-2.2-3.9-3.3-5.8c-1.8-3.2-3.7-6.5-5.5-9.7
			c0-0.1-0.1-0.2,0-0.3c0.1-0.2,0.2-0.2,0.3,0c0.2,0.3,0.4,0.6,0.5,0.9c2.8,4.9,5.6,9.8,8.3,14.6c0,0.1,0.2,0.2,0.1,0.3
			C27.5,20.7,27.4,20.7,27.3,20.7z"/>
		<path fill="#FDFDFE" d="M15.7,7.9c2.4,4.3,4.9,8.5,7.3,12.8c-0.5,0.1-0.5,0.1-0.7-0.3c-2.2-3.9-4.5-7.9-6.7-11.8
			C15.3,8.2,15.3,8.2,15.7,7.9z"/>
		<path fill="#FDFDFE" d="M16.4,7.1c2.6,4.6,5.2,9.1,7.8,13.7c-0.5,0.1-0.5,0.1-0.7-0.3c-2.4-4.2-4.8-8.4-7.2-12.6
			C16,7.4,16,7.4,16.4,7.1z"/>
		<path fill="#FDFDFE" d="M21.8,20.7c-0.4,0.1-0.6,0-0.8-0.4c-2.1-3.6-4.1-7.2-6.2-10.9c-0.2-0.4-0.2-0.4,0.2-0.7
			C17.2,12.7,19.5,16.7,21.8,20.7z"/>
		<path fill="#FDFDFE" d="M19.4,20.7c-0.2,0-0.3,0-0.4,0c-0.2,0-0.2-0.1-0.3-0.2c-1.5-2.6-3-5.2-4.5-7.8c-0.3-0.6-0.6-1.1-1-1.7
			c-0.1-0.2-0.1-0.3,0-0.5c0,0,0.1-0.1,0.1-0.2C15.5,13.8,17.5,17.3,19.4,20.7z"/>
		<path fill="#FDFDFE" d="M20.6,20.7c-0.4,0.1-0.5,0-0.7-0.3C18,17,16,13.7,14.1,10.3c-0.2-0.4-0.2-0.4,0.1-0.7
			C16.3,13.3,18.5,17,20.6,20.7z"/>
		<path fill="#FDFDFE" d="M12.9,11.5c1.8,3.1,3.5,6.1,5.3,9.2c-0.5,0.1-0.5,0.1-0.7-0.3c-1.5-2.6-2.9-5.1-4.4-7.7
			c-0.1-0.2-0.2-0.5-0.2-0.7C12.9,11.9,12.9,11.7,12.9,11.5C12.9,11.5,12.9,11.5,12.9,11.5z"/>
		<path fill="#FDFDFE" d="M12.9,13.6c1.4,2.4,2.7,4.8,4.1,7.1c-0.5,0.1-0.5,0.1-0.7-0.3c-1-1.8-2-3.6-3.1-5.4
			C13,14.6,12.8,14.1,12.9,13.6z"/>
		<path fill="#FDFDFE" d="M12.9,15.6c1,1.7,1.9,3.4,2.9,5.1c-0.2,0-0.3,0-0.5,0c-0.1,0-0.1-0.1-0.2-0.1c-0.7-1.3-1.5-2.6-2.2-3.9
			c0,0-0.1-0.1-0.1-0.2C12.9,16.2,12.9,15.9,12.9,15.6C12.9,15.6,12.9,15.6,12.9,15.6z"/>
		<path fill="#FDFDFE" d="M13,17.8c0.6,1,1.1,2,1.7,2.9c-0.5,0.1-0.5,0.1-0.7-0.3c-0.3-0.4-0.5-0.9-0.8-1.3
			c-0.2-0.3-0.2-0.6-0.2-0.9C12.9,18.1,12.9,17.9,13,17.8C12.9,17.8,12.9,17.8,13,17.8z"/>
		<path fill="#FDFDFE" d="M12.9,19.9c0.2,0.3,0.3,0.5,0.5,0.8c-0.4,0.1-0.5,0-0.5-0.4C12.9,20.2,12.9,20,12.9,19.9
			C12.9,19.9,12.9,19.9,12.9,19.9z"/>
		<path fill="#FDFDFE" d="M9.4,15.2c0,1.9,0,3.8,0,5.8c0,0.2-0.1,0.2-0.2,0.2c-0.1,0-0.2,0-0.2-0.2c0-1.7,0-3.5,0-5.2
			C9,15.5,9.3,15.4,9.4,15.2C9.4,15.2,9.4,15.2,9.4,15.2z"/>
		<path fill="#FDFDFE" d="M10.2,17.7c0,1,0,2,0,3.1c0,0.1,0,0.2,0,0.2c0,0.1-0.1,0.1-0.2,0.1c-0.1,0-0.1-0.1-0.1-0.2
			c0-2.1,0-4.2,0-6.3c0,0,0-0.1,0-0.1c0-0.1,0.1-0.3,0.2-0.3c0.1,0,0.1,0.2,0.1,0.3C10.2,15.7,10.2,16.7,10.2,17.7
			C10.2,17.7,10.2,17.7,10.2,17.7z"/>
		<path fill="#FDFDFE" d="M8.5,16.3c0,0.1,0,0.2,0,0.3c0,1.4,0,2.9,0,4.3c0,0.1,0.1,0.3-0.2,0.3c-0.3,0-0.2-0.1-0.2-0.3
			c0-1.3,0-2.5,0-3.8C8,16.8,8.2,16.5,8.5,16.3z"/>
		<path fill="#FDFDFE" d="M7.6,17.4c0,1.2,0,2.4,0,3.6c0,0.2-0.1,0.2-0.2,0.2c-0.1,0-0.2,0-0.2-0.2c0-1,0-2.1,0-3.1
			C7.2,17.6,7.4,17.6,7.6,17.4C7.5,17.4,7.6,17.4,7.6,17.4z"/>
		<path fill="#FDFDFE" d="M6.7,18.4c0,0.9,0,1.7,0,2.6c0,0.2-0.1,0.2-0.2,0.2c-0.1,0-0.2,0-0.2-0.1c0-0.7,0-1.4,0-2.1
			C6.3,18.7,6.6,18.6,6.7,18.4z"/>
		<path fill="#FDFDFE" d="M5.8,19.5c0,0.5,0,1,0,1.5c0,0.2-0.1,0.2-0.2,0.2c-0.1,0-0.2,0-0.2-0.2c0-0.3,0-0.6,0-1
			C5.4,19.8,5.6,19.7,5.8,19.5z"/>
		<path fill="#FDFDFE" d="M4.9,20.5c0,0.2,0,0.4,0,0.5c0,0.1,0,0.2-0.2,0.2c-0.1,0-0.2,0-0.3-0.1c-0.1-0.1,0.1-0.2,0.1-0.2
			C4.7,20.8,4.8,20.7,4.9,20.5z"/>
	</g>
</g>
</svg>
